<svg width="41" height="41" viewBox="0 0 41 41" fill="none" xmlns="http://www.w3.org/2000/svg">
<path d="M31.2744 5.02246C33.8733 5.02246 35.9775 7.12669 35.9775 9.72559V13.8027C35.9773 16.4014 33.8732 18.5059 31.2744 18.5059H28.9717L27.2324 20.8193L27.2314 20.8184C26.6647 21.5731 25.7874 22 24.8682 22C24.5718 22 24.2602 21.955 23.9619 21.8633L23.9424 21.8574L23.9229 21.8506C23.3348 21.652 22.8237 21.2736 22.4629 20.7686C22.1022 20.2635 21.9093 19.6577 21.9121 19.0371V18.1484C21.8386 18.118 21.766 18.0858 21.6943 18.0518C21.7031 18.1866 21.7087 18.3221 21.709 18.458V18.4648C21.705 20.1734 21.0245 21.8104 19.8164 23.0186C19.5827 23.2523 19.3326 23.466 19.0693 23.6592H21.3984C23.6503 23.6592 25.4802 25.4802 25.4951 27.7285C25.5009 27.9799 25.57 30.7621 23.374 33.085L23.3721 33.0869C21.4623 35.0987 18.6307 35.9766 15.2598 35.9766C11.8891 35.9765 9.05814 35.0986 7.14844 33.0869L7.14648 33.085C4.9637 30.7752 5.01767 28.0138 5.02441 27.6934C5.03342 25.4687 6.88412 23.6592 9.12207 23.6592H11.4492C11.1858 23.466 10.935 23.2524 10.7012 23.0186C9.49325 21.8105 8.8126 20.1732 8.80859 18.4648V18.458C8.8126 16.7494 9.49303 15.1115 10.7012 13.9033C11.9093 12.6952 13.5473 12.0147 15.2559 12.0107H15.2627C16.6123 12.0139 17.9167 12.4408 19.001 13.2148V9.72559C19.001 7.12669 21.1052 5.02246 23.7041 5.02246H31.2744Z" stroke="white" stroke-width="3"/>
</svg>
