<svg width="41" height="41" viewBox="0 0 41 41" fill="none" xmlns="http://www.w3.org/2000/svg">
<path d="M20.499 4.47949C21.5881 4.47956 22.5926 4.81037 23.458 5.46973L23.457 5.4707L33.6855 13.1406C34.3088 13.5977 34.7978 14.1823 35.1445 14.874C35.4916 15.5666 35.6662 16.3095 35.665 17.084V32.459C35.665 33.7998 35.1701 34.9852 34.2217 35.9336C33.2737 36.8815 32.0891 37.3751 30.749 37.374V37.375H25.624C24.7614 37.375 23.9669 37.0667 23.3447 36.4424C22.7256 35.8211 22.4172 35.0305 22.415 34.1709V25.625C22.415 25.5554 22.4037 25.5264 22.4014 25.5205C22.3994 25.5156 22.393 25.5003 22.3643 25.4717C22.3337 25.4413 22.3168 25.4342 22.3105 25.4316C22.3067 25.4301 22.2974 25.426 22.2803 25.4229L22.2031 25.417H18.79C18.7205 25.417 18.6914 25.4283 18.6855 25.4307C18.6808 25.4326 18.6655 25.4389 18.6367 25.4678C18.6065 25.4981 18.5993 25.5151 18.5967 25.5215C18.5936 25.529 18.5822 25.5591 18.582 25.6289V34.167C18.582 35.0295 18.273 35.8227 17.6504 36.4453C17.0285 37.0672 16.2362 37.3751 15.374 37.374V37.375H10.249C8.90883 37.375 7.72325 36.8815 6.77539 35.9336C5.82772 34.9859 5.33377 33.8009 5.33203 32.4609V17.084C5.33203 16.3095 5.50749 15.5665 5.85449 14.874C6.2007 14.1832 6.68879 13.5988 7.31055 13.1416L17.5488 5.46289V5.46387C18.4124 4.80881 19.4135 4.47949 20.499 4.47949Z" stroke="white" stroke-width="3"/>
</svg>
