<svg width="41" height="41" viewBox="0 0 41 41" fill="none" xmlns="http://www.w3.org/2000/svg">
<path d="M20.501 5.33398C23.754 5.33398 26.3401 5.33108 28.3623 5.59375C30.4222 5.86137 32.1232 6.42829 33.4727 7.7334C34.8304 9.04585 35.4276 10.71 35.708 12.7256C35.9817 14.6927 35.9775 17.2049 35.9775 20.3457C35.9775 23.4861 35.9816 25.9979 35.708 27.9648C35.4277 29.9796 34.8301 31.6429 33.4727 32.9541L33.4736 32.9551C32.1236 34.261 30.4227 34.8288 28.3623 35.0967C26.3401 35.3596 23.7542 35.3564 20.501 35.3564C17.2477 35.3564 14.6619 35.3596 12.6396 35.0967C10.7079 34.8455 9.09277 34.3311 7.78516 33.1924L7.52734 32.9561C6.1702 31.6441 5.57418 29.98 5.29395 27.9648C5.02048 25.9981 5.02344 23.4863 5.02344 20.3457C5.02344 17.2049 5.02047 14.6934 5.29395 12.7266C5.57418 10.7111 6.16996 9.04741 7.52637 7.73438L7.52734 7.7334C8.87794 6.42871 10.5784 5.86145 12.6387 5.59375C14.661 5.33101 17.2475 5.33398 20.501 5.33398Z" stroke="white" stroke-width="3"/>
</svg>
