<svg width="44" height="44" viewBox="0 0 44 44" fill="none" xmlns="http://www.w3.org/2000/svg">
<g clip-path="url(#clip0_849_3289)">
<path d="M28.667 22.167C31.2748 22.1671 33.7761 23.2028 35.6201 25.0469C37.4641 26.891 38.5 29.3921 38.5 32C38.5 33.7239 37.8157 35.3777 36.5967 36.5967C35.3777 37.8157 33.7239 38.5 32 38.5H12C10.2761 38.5 8.62231 37.8157 7.40332 36.5967C6.18433 35.3777 5.5 33.7239 5.5 32C5.5 29.3921 6.53588 26.891 8.37988 25.0469C10.2239 23.2028 12.7252 22.1671 15.333 22.167H28.667ZM22.4053 5.50977C24.4235 5.60996 26.3387 6.45604 27.7744 7.8916C29.306 9.42315 30.167 11.5011 30.167 13.667C30.1669 15.8328 29.3059 17.9099 27.7744 19.4414C26.3387 20.8771 24.4236 21.723 22.4053 21.8232L22 21.833C19.8341 21.833 17.7571 20.9729 16.2256 19.4414C14.6941 17.9099 13.8331 15.8328 13.833 13.667C13.833 11.5011 14.694 9.42315 16.2256 7.8916C17.7571 6.36026 19.8342 5.5 22 5.5L22.4053 5.50977Z" stroke="white" stroke-width="3"/>
</g>
<defs>
<clipPath id="clip0_849_3289">
<rect width="44" height="44" fill="white"/>
</clipPath>
</defs>
</svg>
