<svg width="23" height="23" viewBox="0 0 23 23" fill="none" xmlns="http://www.w3.org/2000/svg">
<path d="M11.0695 4.44141C12.8268 4.44141 14.5122 5.13951 15.7548 6.38215C16.9975 7.62478 17.6956 9.31016 17.6956 11.0675C17.6956 12.8249 16.9975 14.5102 15.7548 15.7529C14.5122 16.9955 12.8268 17.6936 11.0695 17.6936C9.31211 17.6936 7.62674 16.9955 6.3841 15.7529C5.14146 14.5102 4.44336 12.8249 4.44336 11.0675C4.44336 9.31016 5.14146 7.62478 6.3841 6.38215C7.62674 5.13951 9.31211 4.44141 11.0695 4.44141ZM11.0695 16.747C12.5758 16.747 14.0204 16.1487 15.0855 15.0835C16.1506 14.0184 16.749 12.5738 16.749 11.0675C16.749 9.56121 16.1506 8.1166 15.0855 7.05149C14.0204 5.98637 12.5758 5.38799 11.0695 5.38799C9.56316 5.38799 8.11855 5.98637 7.05344 7.05149C5.98832 8.1166 5.38995 9.56121 5.38995 11.0675C5.38995 12.5738 5.98832 14.0184 7.05344 15.0835C8.11855 16.1487 9.56316 16.747 11.0695 16.747ZM11.7794 14.1439C11.7794 14.3322 11.7046 14.5128 11.5715 14.6459C11.4383 14.7791 11.2578 14.8539 11.0695 14.8539C10.8812 14.8539 10.7006 14.7791 10.5675 14.6459C10.4343 14.5128 10.3595 14.3322 10.3595 14.1439C10.3595 13.9556 10.4343 13.7751 10.5675 13.6419C10.7006 13.5088 10.8812 13.434 11.0695 13.434C11.2578 13.434 11.4383 13.5088 11.5715 13.6419C11.7046 13.7751 11.7794 13.9556 11.7794 14.1439ZM11.0695 7.28117C11.195 7.28117 11.3154 7.33103 11.4041 7.41979C11.4929 7.50855 11.5428 7.62893 11.5428 7.75446V12.0141C11.5428 12.1396 11.4929 12.26 11.4041 12.3488C11.3154 12.4375 11.195 12.4874 11.0695 12.4874C10.9439 12.4874 10.8236 12.4375 10.7348 12.3488C10.646 12.26 10.5962 12.1396 10.5962 12.0141V7.75446C10.5962 7.62893 10.646 7.50855 10.7348 7.41979C10.8236 7.33103 10.9439 7.28117 11.0695 7.28117Z" fill="#9F9C9C"/>
</svg>
