<svg width="14" height="13" viewBox="0 0 14 13" fill="none" xmlns="http://www.w3.org/2000/svg">
<path d="M6.99965 10.8907L3.60648 12.8781C3.45658 12.9708 3.29986 13.0106 3.13634 12.9973C2.97281 12.9841 2.82973 12.9311 2.70708 12.8384C2.58444 12.7456 2.48904 12.6298 2.42091 12.491C2.35277 12.3521 2.33915 12.1963 2.38003 12.0235L3.27942 8.26742L0.274623 5.74347C0.138351 5.62423 0.0533171 5.4883 0.0195216 5.33567C-0.0142739 5.18304 -0.00418977 5.03412 0.049774 4.88891C0.103738 4.7437 0.185501 4.62446 0.295064 4.53118C0.404627 4.43791 0.554526 4.37829 0.744762 4.35232L4.71028 4.01447L6.24334 0.476967C6.31148 0.317978 6.41723 0.198736 6.56058 0.119242C6.70394 0.0397471 6.8503 0 6.99965 0C7.14901 0 7.29536 0.0397471 7.43872 0.119242C7.58208 0.198736 7.68783 0.317978 7.75596 0.476967L9.28902 4.01447L13.2545 4.35232C13.4453 4.37882 13.5952 4.43844 13.7042 4.53118C13.8133 4.62393 13.895 4.74317 13.9495 4.88891C14.004 5.03465 14.0144 5.18383 13.9806 5.33646C13.9468 5.48909 13.8615 5.62476 13.7247 5.74347L10.7199 8.26742L11.6193 12.0235C11.6602 12.1958 11.6465 12.3516 11.5784 12.491C11.5103 12.6303 11.4149 12.7461 11.2922 12.8384C11.1696 12.9306 11.0265 12.9836 10.863 12.9973C10.6994 13.0111 10.5427 12.9714 10.3928 12.8781L6.99965 10.8907Z" fill="#FFE016"/>
</svg>
